<svg xmlns="http://www.w3.org/2000/svg" xmlns:xlink="http://www.w3.org/1999/xlink" width="500" zoomAndPan="magnify" viewBox="0 0 375 374.999991" height="500" preserveAspectRatio="xMidYMid meet" version="1.2"><defs><clipPath id="93a3cd7bf9"><path d="M 137 211 L 178.445312 211 L 178.445312 281 L 137 281 Z M 137 211 "/></clipPath><clipPath id="1c99c36813"><path d="M 131.453125 202.582031 L 134 202.582031 L 134 289.582031 L 131.453125 289.582031 Z M 131.453125 202.582031 "/></clipPath></defs><g id="9b90dba8d7"><g clip-rule="nonzero" clip-path="url(#93a3cd7bf9)"><path style=" stroke:none;fill-rule:nonzero;fill:#000000;fill-opacity:1;" d="M 144.347656 242.730469 L 137.507812 242.738281 L 137.507812 240.609375 L 144.382812 240.609375 L 141.414062 221.957031 L 137.507812 221.957031 L 137.507812 219.824219 L 143.429688 219.824219 L 157.304688 216.839844 L 146.46875 214.003906 L 137.507812 214.003906 L 137.507812 211.871094 L 146.742188 211.871094 L 162.414062 215.976562 L 178.445312 230.210938 L 137.507812 280.292969 Z M 143.65625 221.957031 L 143.574219 221.957031 L 146.515625 240.460938 L 158.753906 238.597656 L 151.183594 220.335938 Z M 161.59375 218.097656 L 153.300781 219.882812 L 160.789062 237.945312 L 175.132812 230.121094 Z M 172.695312 233.875 L 161.039062 240.238281 L 146.6875 265.699219 Z M 158.257812 240.828125 L 146.535156 242.613281 L 141.121094 271.234375 Z M 158.257812 240.828125 "/></g><g clip-rule="nonzero" clip-path="url(#1c99c36813)"><path style=" stroke:none;fill-rule:nonzero;fill:#000000;fill-opacity:1;" d="M 133.597656 202.582031 L 131.464844 202.582031 L 131.464844 289.585938 L 133.597656 289.585938 Z M 133.597656 202.582031 "/></g><g style="fill:#000000;fill-opacity:1;"><g transform="translate(44.279495, 307.379843)"><path style="stroke:none" d="M 33.046875 -16 C 33.046875 -12.675781 33.703125 -9.441406 35.015625 -6.296875 C 36.328125 -3.148438 38.734375 -1.050781 42.234375 0 L 7.609375 0 C 11.453125 -1.050781 14.03125 -3.148438 15.34375 -6.296875 C 16.65625 -9.441406 17.3125 -12.765625 17.3125 -16.265625 L 17.3125 -133.765625 C 12.59375 -133.941406 7.785156 -134.378906 2.890625 -135.078125 C -2.003906 -135.773438 -6.8125 -136.867188 -11.53125 -138.359375 C -16.257812 -139.847656 -20.804688 -141.769531 -25.171875 -144.125 C -29.546875 -146.488281 -33.394531 -149.332031 -36.71875 -152.65625 L -35.9375 -155.015625 C -28.769531 -148.367188 -21.078125 -143.734375 -12.859375 -141.109375 C -4.640625 -138.492188 4.28125 -137.1875 13.90625 -137.1875 C 22.820312 -137.1875 31.429688 -138.191406 39.734375 -140.203125 C 48.046875 -142.210938 56.394531 -144.53125 64.78125 -147.15625 L 78.953125 -151.609375 C 87.347656 -154.398438 95.738281 -156.800781 104.125 -158.8125 C 112.519531 -160.832031 121.175781 -161.84375 130.09375 -161.84375 C 141.113281 -161.84375 151.210938 -160.046875 160.390625 -156.453125 C 169.578125 -152.867188 177.753906 -146.707031 184.921875 -137.96875 L 182.5625 -136.921875 C 179.9375 -140.765625 177.003906 -143.863281 173.765625 -146.21875 C 170.535156 -148.582031 166.992188 -150.421875 163.140625 -151.734375 C 159.296875 -153.046875 155.316406 -153.960938 151.203125 -154.484375 C 147.097656 -155.015625 142.863281 -155.28125 138.5 -155.28125 C 129.40625 -155.28125 120.484375 -154.273438 111.734375 -152.265625 C 102.992188 -150.253906 94.296875 -148.023438 85.640625 -145.578125 C 76.984375 -143.128906 68.28125 -140.765625 59.53125 -138.484375 C 50.789062 -136.210938 41.960938 -134.816406 33.046875 -134.296875 Z M 33.046875 -16 "/></g></g><g style="fill:#000000;fill-opacity:1;"><g transform="translate(84.385716, 307.516403)"><path style="stroke:none" d="M 49.625 -24.03125 C 49.625 -19.039062 50.609375 -14.179688 52.578125 -9.453125 C 54.546875 -4.722656 58.15625 -1.570312 63.40625 0 L 11.421875 0 C 17.203125 -1.570312 21.078125 -4.722656 23.046875 -9.453125 C 25.015625 -14.179688 26 -19.171875 26 -24.421875 L 26 -200.875 C 18.90625 -201.132812 11.679688 -201.789062 4.328125 -202.84375 C -3.023438 -203.894531 -10.242188 -205.535156 -17.328125 -207.765625 C -24.421875 -209.992188 -31.25 -212.878906 -37.8125 -216.421875 C -44.375 -219.972656 -50.148438 -224.242188 -55.140625 -229.234375 L -53.953125 -232.78125 C -43.191406 -222.800781 -31.640625 -215.84375 -19.296875 -211.90625 C -6.953125 -207.96875 6.4375 -206 20.875 -206 C 34.269531 -206 47.203125 -207.507812 59.671875 -210.53125 C 72.140625 -213.550781 84.675781 -217.03125 97.28125 -220.96875 L 118.5625 -227.65625 C 131.164062 -231.863281 143.769531 -235.472656 156.375 -238.484375 C 168.976562 -241.503906 181.972656 -243.015625 195.359375 -243.015625 C 211.898438 -243.015625 227.0625 -240.320312 240.84375 -234.9375 C 254.632812 -229.5625 266.914062 -220.304688 277.6875 -207.171875 L 274.140625 -205.609375 C 270.203125 -211.378906 265.800781 -216.035156 260.9375 -219.578125 C 256.082031 -223.128906 250.765625 -225.890625 244.984375 -227.859375 C 239.210938 -229.828125 233.238281 -231.203125 227.0625 -231.984375 C 220.894531 -232.773438 214.53125 -233.171875 207.96875 -233.171875 C 194.3125 -233.171875 180.914062 -231.660156 167.78125 -228.640625 C 154.65625 -225.617188 141.59375 -222.269531 128.59375 -218.59375 C 115.601562 -214.925781 102.539062 -211.382812 89.40625 -207.96875 C 76.28125 -204.550781 63.019531 -202.445312 49.625 -201.65625 Z M 49.625 -24.03125 "/></g></g></g></svg>