<svg xmlns="http://www.w3.org/2000/svg" xmlns:xlink="http://www.w3.org/1999/xlink" width="300" zoomAndPan="magnify" viewBox="0 0 224.87999 74.999997" height="100" preserveAspectRatio="xMidYMid meet" version="1.2"><defs><clipPath id="1e7395f87c"><path d="M 65 69 L 69 69 L 69 74.980469 L 65 74.980469 Z M 65 69 "/></clipPath><clipPath id="862a8ffb71"><path d="M 71 69 L 78 69 L 78 74.980469 L 71 74.980469 Z M 71 69 "/></clipPath><clipPath id="e3e6c7a918"><path d="M 81 69 L 86 69 L 86 74.980469 L 81 74.980469 Z M 81 69 "/></clipPath><clipPath id="c54897c205"><path d="M 89 69 L 95 69 L 95 74.980469 L 89 74.980469 Z M 89 69 "/></clipPath><clipPath id="f54953afd3"><path d="M 97 69 L 104 69 L 104 74.980469 L 97 74.980469 Z M 97 69 "/></clipPath><clipPath id="22e72f7e94"><path d="M 106 69 L 111 69 L 111 74.980469 L 106 74.980469 Z M 106 69 "/></clipPath><clipPath id="87fa733568"><path d="M 114 69 L 120 69 L 120 74.980469 L 114 74.980469 Z M 114 69 "/></clipPath><clipPath id="cc3afd8a33"><path d="M 123 69 L 124 69 L 124 74.980469 L 123 74.980469 Z M 123 69 "/></clipPath><clipPath id="d081712b39"><path d="M 127 67 L 134 67 L 134 74.980469 L 127 74.980469 Z M 127 67 "/></clipPath><clipPath id="6b27115ad2"><path d="M 137 69 L 141 69 L 141 74.980469 L 137 74.980469 Z M 137 69 "/></clipPath><clipPath id="26031cc023"><path d="M 143 69 L 150 69 L 150 74.980469 L 143 74.980469 Z M 143 69 "/></clipPath><clipPath id="b09c5166db"><path d="M 152 69 L 159 69 L 159 74.980469 L 152 74.980469 Z M 152 69 "/></clipPath><clipPath id="b23bb4ec37"><path d="M 161 69 L 167 69 L 167 74.980469 L 161 74.980469 Z M 161 69 "/></clipPath><clipPath id="5ba40ce4d1"><path d="M 29 30 L 43.085938 30 L 43.085938 54 L 29 54 Z M 29 30 "/></clipPath><clipPath id="debd893c26"><path d="M 27.355469 27.671875 L 29 27.671875 L 29 56.90625 L 27.355469 56.90625 Z M 27.355469 27.671875 "/></clipPath></defs><g id="8e6cb32896"><g style="fill:#cfaa5c;fill-opacity:1;"><g transform="translate(58.513296, 34.545515)"><path style="stroke:none" d="M 5.8125 -18.65625 C 4.519531 -18.65625 3.550781 -18.328125 2.90625 -17.671875 C 2.257812 -17.015625 1.789062 -15.898438 1.5 -14.328125 C 1.5 -14.285156 1.441406 -14.265625 1.328125 -14.265625 C 1.222656 -14.265625 1.171875 -14.285156 1.171875 -14.328125 C 1.253906 -15.054688 1.34375 -16.015625 1.4375 -17.203125 C 1.539062 -18.398438 1.59375 -19.296875 1.59375 -19.890625 C 1.59375 -19.984375 1.648438 -20.03125 1.765625 -20.03125 C 1.878906 -20.03125 1.9375 -19.984375 1.9375 -19.890625 C 1.9375 -19.429688 2.488281 -19.203125 3.59375 -19.203125 C 5.332031 -19.140625 7.394531 -19.109375 9.78125 -19.109375 C 10.988281 -19.109375 12.265625 -19.128906 13.609375 -19.171875 L 15.703125 -19.203125 C 16.441406 -19.203125 16.988281 -19.253906 17.34375 -19.359375 C 17.707031 -19.460938 17.941406 -19.671875 18.046875 -19.984375 C 18.066406 -20.054688 18.125 -20.09375 18.21875 -20.09375 C 18.320312 -20.09375 18.375 -20.054688 18.375 -19.984375 C 18.3125 -19.390625 18.25 -18.484375 18.1875 -17.265625 C 18.132812 -16.054688 18.109375 -15.078125 18.109375 -14.328125 C 18.109375 -14.285156 18.046875 -14.265625 17.921875 -14.265625 C 17.796875 -14.265625 17.734375 -14.285156 17.734375 -14.328125 C 17.671875 -15.921875 17.34375 -17.039062 16.75 -17.6875 C 16.15625 -18.332031 15.171875 -18.65625 13.796875 -18.65625 C 12.878906 -18.65625 12.222656 -18.613281 11.828125 -18.53125 C 11.441406 -18.445312 11.175781 -18.269531 11.03125 -18 C 10.882812 -17.738281 10.8125 -17.289062 10.8125 -16.65625 L 10.8125 -2.484375 C 10.8125 -1.847656 10.882812 -1.382812 11.03125 -1.09375 C 11.175781 -0.8125 11.453125 -0.617188 11.859375 -0.515625 C 12.273438 -0.421875 12.921875 -0.375 13.796875 -0.375 C 13.859375 -0.375 13.890625 -0.3125 13.890625 -0.1875 C 13.890625 -0.0625 13.859375 0 13.796875 0 C 13.117188 0 12.578125 -0.0078125 12.171875 -0.03125 L 9.78125 -0.0625 L 7.46875 -0.03125 C 7.0625 -0.0078125 6.5 0 5.78125 0 C 5.738281 0 5.71875 -0.0625 5.71875 -0.1875 C 5.71875 -0.3125 5.738281 -0.375 5.78125 -0.375 C 6.65625 -0.375 7.296875 -0.421875 7.703125 -0.515625 C 8.117188 -0.617188 8.40625 -0.816406 8.5625 -1.109375 C 8.71875 -1.410156 8.796875 -1.867188 8.796875 -2.484375 L 8.796875 -16.71875 C 8.796875 -17.351562 8.722656 -17.796875 8.578125 -18.046875 C 8.429688 -18.304688 8.160156 -18.472656 7.765625 -18.546875 C 7.378906 -18.617188 6.726562 -18.65625 5.8125 -18.65625 Z M 5.8125 -18.65625 "/></g></g><g style="fill:#cfaa5c;fill-opacity:1;"><g transform="translate(77.996145, 34.545515)"><path style="stroke:none" d="M 22.1875 -0.375 C 22.25 -0.375 22.28125 -0.3125 22.28125 -0.1875 C 22.28125 -0.0625 22.25 0 22.1875 0 C 21.550781 0 21.050781 -0.0078125 20.6875 -0.03125 L 18.5625 -0.0625 L 16.3125 -0.03125 C 15.945312 -0.0078125 15.457031 0 14.84375 0 C 14.78125 0 14.75 -0.0625 14.75 -0.1875 C 14.75 -0.3125 14.78125 -0.375 14.84375 -0.375 C 15.644531 -0.375 16.226562 -0.421875 16.59375 -0.515625 C 16.96875 -0.617188 17.21875 -0.816406 17.34375 -1.109375 C 17.476562 -1.410156 17.546875 -1.867188 17.546875 -2.484375 L 17.546875 -9.6875 L 5.75 -9.6875 L 5.75 -2.484375 C 5.75 -1.867188 5.8125 -1.410156 5.9375 -1.109375 C 6.070312 -0.816406 6.320312 -0.617188 6.6875 -0.515625 C 7.0625 -0.421875 7.648438 -0.375 8.453125 -0.375 C 8.492188 -0.375 8.515625 -0.3125 8.515625 -0.1875 C 8.515625 -0.0625 8.492188 0 8.453125 0 C 7.816406 0 7.316406 -0.0078125 6.953125 -0.03125 L 4.734375 -0.0625 L 2.609375 -0.03125 C 2.242188 -0.0078125 1.734375 0 1.078125 0 C 1.035156 0 1.015625 -0.0625 1.015625 -0.1875 C 1.015625 -0.3125 1.035156 -0.375 1.078125 -0.375 C 1.859375 -0.375 2.4375 -0.421875 2.8125 -0.515625 C 3.1875 -0.617188 3.441406 -0.816406 3.578125 -1.109375 C 3.710938 -1.410156 3.78125 -1.867188 3.78125 -2.484375 L 3.78125 -16.71875 C 3.78125 -17.332031 3.710938 -17.78125 3.578125 -18.0625 C 3.441406 -18.351562 3.191406 -18.554688 2.828125 -18.671875 C 2.460938 -18.785156 1.890625 -18.84375 1.109375 -18.84375 C 1.066406 -18.84375 1.046875 -18.898438 1.046875 -19.015625 C 1.046875 -19.140625 1.066406 -19.203125 1.109375 -19.203125 L 2.671875 -19.171875 C 3.535156 -19.128906 4.222656 -19.109375 4.734375 -19.109375 C 5.328125 -19.109375 6.078125 -19.128906 6.984375 -19.171875 L 8.453125 -19.203125 C 8.492188 -19.203125 8.515625 -19.140625 8.515625 -19.015625 C 8.515625 -18.898438 8.492188 -18.84375 8.453125 -18.84375 C 7.671875 -18.84375 7.085938 -18.78125 6.703125 -18.65625 C 6.328125 -18.53125 6.070312 -18.316406 5.9375 -18.015625 C 5.8125 -17.722656 5.75 -17.269531 5.75 -16.65625 L 5.75 -10.328125 L 17.546875 -10.328125 L 17.546875 -16.65625 C 17.546875 -17.269531 17.476562 -17.722656 17.34375 -18.015625 C 17.21875 -18.316406 16.96875 -18.53125 16.59375 -18.65625 C 16.226562 -18.78125 15.644531 -18.84375 14.84375 -18.84375 C 14.78125 -18.84375 14.75 -18.898438 14.75 -19.015625 C 14.75 -19.140625 14.78125 -19.203125 14.84375 -19.203125 L 16.3125 -19.171875 C 17.21875 -19.128906 17.96875 -19.109375 18.5625 -19.109375 C 19.113281 -19.109375 19.820312 -19.128906 20.6875 -19.171875 L 22.1875 -19.203125 C 22.25 -19.203125 22.28125 -19.140625 22.28125 -19.015625 C 22.28125 -18.898438 22.25 -18.84375 22.1875 -18.84375 C 21.40625 -18.84375 20.832031 -18.785156 20.46875 -18.671875 C 20.101562 -18.554688 19.851562 -18.351562 19.71875 -18.0625 C 19.582031 -17.78125 19.515625 -17.332031 19.515625 -16.71875 L 19.515625 -2.484375 C 19.515625 -1.867188 19.582031 -1.410156 19.71875 -1.109375 C 19.851562 -0.816406 20.101562 -0.617188 20.46875 -0.515625 C 20.832031 -0.421875 21.40625 -0.375 22.1875 -0.375 Z M 22.1875 -0.375 "/></g></g><g style="fill:#cfaa5c;fill-opacity:1;"><g transform="translate(101.320254, 34.545515)"><path style="stroke:none" d="M 21.484375 -0.375 C 21.566406 -0.375 21.609375 -0.3125 21.609375 -0.1875 C 21.609375 -0.0625 21.566406 0 21.484375 0 C 21.097656 0 20.492188 -0.0195312 19.671875 -0.0625 C 18.847656 -0.101562 18.253906 -0.125 17.890625 -0.125 C 17.441406 -0.125 16.867188 -0.101562 16.171875 -0.0625 C 15.515625 -0.0195312 15.007812 0 14.65625 0 C 14.570312 0 14.53125 -0.0625 14.53125 -0.1875 C 14.53125 -0.3125 14.570312 -0.375 14.65625 -0.375 C 15.414062 -0.375 15.96875 -0.441406 16.3125 -0.578125 C 16.664062 -0.722656 16.84375 -0.972656 16.84375 -1.328125 C 16.84375 -1.609375 16.707031 -2.046875 16.4375 -2.640625 L 12.90625 -10.171875 L 7.09375 -10.171875 L 4.453125 -3.90625 C 4.171875 -3.207031 4.03125 -2.632812 4.03125 -2.1875 C 4.03125 -0.976562 5.03125 -0.375 7.03125 -0.375 C 7.132812 -0.375 7.1875 -0.3125 7.1875 -0.1875 C 7.1875 -0.0625 7.132812 0 7.03125 0 C 6.664062 0 6.132812 -0.0195312 5.4375 -0.0625 C 4.65625 -0.101562 3.976562 -0.125 3.40625 -0.125 C 2.875 -0.125 2.257812 -0.101562 1.5625 -0.0625 C 0.945312 -0.0195312 0.4375 0 0.03125 0 C -0.0703125 0 -0.125 -0.0625 -0.125 -0.1875 C -0.125 -0.3125 -0.0703125 -0.375 0.03125 -0.375 C 0.601562 -0.375 1.085938 -0.476562 1.484375 -0.6875 C 1.890625 -0.90625 2.269531 -1.285156 2.625 -1.828125 C 2.988281 -2.367188 3.382812 -3.15625 3.8125 -4.1875 L 10.296875 -19.484375 C 10.335938 -19.546875 10.410156 -19.578125 10.515625 -19.578125 C 10.617188 -19.578125 10.679688 -19.546875 10.703125 -19.484375 L 17.953125 -4.203125 C 18.648438 -2.691406 19.242188 -1.675781 19.734375 -1.15625 C 20.222656 -0.632812 20.804688 -0.375 21.484375 -0.375 Z M 7.375 -10.8125 L 12.59375 -10.8125 L 9.828125 -16.65625 Z M 7.375 -10.8125 "/></g></g><g style="fill:#cfaa5c;fill-opacity:1;"><g transform="translate(122.892747, 34.545515)"><path style="stroke:none" d="M 18.875 -19.203125 C 18.914062 -19.203125 18.9375 -19.140625 18.9375 -19.015625 C 18.9375 -18.898438 18.914062 -18.84375 18.875 -18.84375 C 18.132812 -18.84375 17.382812 -18.570312 16.625 -18.03125 C 15.863281 -17.488281 15.1875 -16.742188 14.59375 -15.796875 L 10.484375 -9.46875 L 10.484375 -2.484375 C 10.484375 -1.847656 10.539062 -1.382812 10.65625 -1.09375 C 10.78125 -0.8125 11.019531 -0.617188 11.375 -0.515625 C 11.738281 -0.421875 12.3125 -0.375 13.09375 -0.375 C 13.15625 -0.375 13.1875 -0.3125 13.1875 -0.1875 C 13.1875 -0.0625 13.15625 0 13.09375 0 C 12.457031 0 11.96875 -0.0078125 11.625 -0.03125 L 9.46875 -0.0625 L 7.34375 -0.03125 C 6.976562 -0.0078125 6.476562 0 5.84375 0 C 5.78125 0 5.75 -0.0625 5.75 -0.1875 C 5.75 -0.3125 5.78125 -0.375 5.84375 -0.375 C 6.613281 -0.375 7.175781 -0.421875 7.53125 -0.515625 C 7.894531 -0.617188 8.144531 -0.816406 8.28125 -1.109375 C 8.414062 -1.410156 8.484375 -1.867188 8.484375 -2.484375 L 8.484375 -8.96875 L 3.375 -16.4375 C 2.800781 -17.34375 2.257812 -17.96875 1.75 -18.3125 C 1.238281 -18.664062 0.644531 -18.84375 -0.03125 -18.84375 C -0.09375 -18.84375 -0.125 -18.898438 -0.125 -19.015625 C -0.125 -19.140625 -0.09375 -19.203125 -0.03125 -19.203125 C 0.21875 -19.203125 0.585938 -19.179688 1.078125 -19.140625 L 2.15625 -19.109375 C 2.851562 -19.109375 3.734375 -19.128906 4.796875 -19.171875 L 6.453125 -19.203125 C 6.492188 -19.203125 6.515625 -19.140625 6.515625 -19.015625 C 6.515625 -18.898438 6.492188 -18.84375 6.453125 -18.84375 C 5.390625 -18.84375 4.859375 -18.625 4.859375 -18.1875 C 4.859375 -17.96875 4.957031 -17.710938 5.15625 -17.421875 L 10.109375 -10.171875 L 13.859375 -15.921875 C 14.304688 -16.640625 14.53125 -17.242188 14.53125 -17.734375 C 14.53125 -18.472656 13.976562 -18.84375 12.875 -18.84375 C 12.832031 -18.84375 12.8125 -18.898438 12.8125 -19.015625 C 12.8125 -19.140625 12.832031 -19.203125 12.875 -19.203125 L 14.328125 -19.171875 C 15.097656 -19.128906 15.8125 -19.109375 16.46875 -19.109375 C 16.820312 -19.109375 17.242188 -19.128906 17.734375 -19.171875 Z M 18.875 -19.203125 "/></g></g><g style="fill:#cfaa5c;fill-opacity:1;"><g transform="translate(141.607345, 34.545515)"><path style="stroke:none" d="M 21.640625 -19.203125 C 21.703125 -19.203125 21.734375 -19.140625 21.734375 -19.015625 C 21.734375 -18.898438 21.703125 -18.84375 21.640625 -18.84375 C 20.773438 -18.84375 20.144531 -18.601562 19.75 -18.125 C 19.363281 -17.65625 19.171875 -16.890625 19.171875 -15.828125 L 19.171875 0.375 C 19.171875 0.414062 19.117188 0.441406 19.015625 0.453125 C 18.921875 0.472656 18.851562 0.46875 18.8125 0.4375 L 4.671875 -16.6875 L 4.390625 -17 L 4.390625 -3.34375 C 4.390625 -2.28125 4.578125 -1.519531 4.953125 -1.0625 C 5.335938 -0.601562 5.953125 -0.375 6.796875 -0.375 C 6.859375 -0.375 6.890625 -0.3125 6.890625 -0.1875 C 6.890625 -0.0625 6.859375 0 6.796875 0 C 6.285156 0 5.894531 -0.0078125 5.625 -0.03125 L 4.09375 -0.0625 L 2.515625 -0.03125 C 2.234375 -0.0078125 1.816406 0 1.265625 0 C 1.222656 0 1.203125 -0.0625 1.203125 -0.1875 C 1.203125 -0.3125 1.222656 -0.375 1.265625 -0.375 C 2.140625 -0.375 2.757812 -0.601562 3.125 -1.0625 C 3.5 -1.519531 3.6875 -2.28125 3.6875 -3.34375 L 3.6875 -17.734375 C 2.882812 -18.472656 2.078125 -18.84375 1.265625 -18.84375 C 1.203125 -18.84375 1.171875 -18.898438 1.171875 -19.015625 C 1.171875 -19.140625 1.203125 -19.203125 1.265625 -19.203125 L 2.390625 -19.171875 C 2.640625 -19.148438 2.976562 -19.140625 3.40625 -19.140625 C 3.863281 -19.140625 4.234375 -19.148438 4.515625 -19.171875 C 4.804688 -19.191406 5.03125 -19.203125 5.1875 -19.203125 C 5.351562 -19.203125 5.472656 -19.164062 5.546875 -19.09375 C 5.617188 -19.03125 5.738281 -18.875 5.90625 -18.625 C 6.144531 -18.257812 6.390625 -17.921875 6.640625 -17.609375 L 18.46875 -3.078125 L 18.46875 -15.828125 C 18.46875 -16.890625 18.285156 -17.65625 17.921875 -18.125 C 17.566406 -18.601562 16.972656 -18.84375 16.140625 -18.84375 C 16.097656 -18.84375 16.078125 -18.898438 16.078125 -19.015625 C 16.078125 -19.140625 16.097656 -19.203125 16.140625 -19.203125 L 17.328125 -19.171875 C 17.941406 -19.128906 18.445312 -19.109375 18.84375 -19.109375 C 19.207031 -19.109375 19.71875 -19.128906 20.375 -19.171875 Z M 21.640625 -19.203125 "/></g></g><g style="fill:#cfaa5c;fill-opacity:1;"><g transform="translate(163.948089, 34.545515)"><path style="stroke:none" d="M 7.4375 -20.84375 C 7.351562 -20.84375 7.300781 -20.882812 7.28125 -20.96875 C 7.257812 -21.0625 7.28125 -21.128906 7.34375 -21.171875 C 8.019531 -21.546875 9.140625 -22.179688 10.703125 -23.078125 C 11.066406 -23.328125 11.382812 -23.53125 11.65625 -23.6875 C 11.9375 -23.851562 12.171875 -23.988281 12.359375 -24.09375 C 12.441406 -24.132812 12.679688 -24.085938 13.078125 -23.953125 C 13.472656 -23.816406 13.8125 -23.664062 14.09375 -23.5 C 14.382812 -23.34375 14.460938 -23.253906 14.328125 -23.234375 C 13.054688 -22.929688 11.890625 -22.585938 10.828125 -22.203125 C 9.773438 -21.828125 8.664062 -21.382812 7.5 -20.875 Z M 21.484375 -0.375 C 21.566406 -0.375 21.609375 -0.3125 21.609375 -0.1875 C 21.609375 -0.0625 21.566406 0 21.484375 0 C 21.097656 0 20.492188 -0.0195312 19.671875 -0.0625 C 18.847656 -0.101562 18.253906 -0.125 17.890625 -0.125 C 17.441406 -0.125 16.867188 -0.101562 16.171875 -0.0625 C 15.515625 -0.0195312 15.007812 0 14.65625 0 C 14.570312 0 14.53125 -0.0625 14.53125 -0.1875 C 14.53125 -0.3125 14.570312 -0.375 14.65625 -0.375 C 15.414062 -0.375 15.96875 -0.441406 16.3125 -0.578125 C 16.664062 -0.722656 16.84375 -0.972656 16.84375 -1.328125 C 16.84375 -1.609375 16.707031 -2.046875 16.4375 -2.640625 L 12.90625 -10.171875 L 7.09375 -10.171875 L 4.453125 -3.90625 C 4.171875 -3.207031 4.03125 -2.632812 4.03125 -2.1875 C 4.03125 -0.976562 5.03125 -0.375 7.03125 -0.375 C 7.132812 -0.375 7.1875 -0.3125 7.1875 -0.1875 C 7.1875 -0.0625 7.132812 0 7.03125 0 C 6.664062 0 6.132812 -0.0195312 5.4375 -0.0625 C 4.65625 -0.101562 3.976562 -0.125 3.40625 -0.125 C 2.875 -0.125 2.257812 -0.101562 1.5625 -0.0625 C 0.945312 -0.0195312 0.4375 0 0.03125 0 C -0.0703125 0 -0.125 -0.0625 -0.125 -0.1875 C -0.125 -0.3125 -0.0703125 -0.375 0.03125 -0.375 C 0.601562 -0.375 1.085938 -0.476562 1.484375 -0.6875 C 1.890625 -0.90625 2.269531 -1.285156 2.625 -1.828125 C 2.988281 -2.367188 3.382812 -3.15625 3.8125 -4.1875 L 10.296875 -19.484375 C 10.335938 -19.546875 10.410156 -19.578125 10.515625 -19.578125 C 10.617188 -19.578125 10.679688 -19.546875 10.703125 -19.484375 L 17.953125 -4.203125 C 18.648438 -2.691406 19.242188 -1.675781 19.734375 -1.15625 C 20.222656 -0.632812 20.804688 -0.375 21.484375 -0.375 Z M 7.375 -10.8125 L 12.59375 -10.8125 L 9.828125 -16.65625 Z M 7.375 -10.8125 "/></g></g><g style="fill:#cfaa5c;fill-opacity:1;"><g transform="translate(58.513296, 62.431857)"><path style="stroke:none" d="M 5.8125 -18.65625 C 4.519531 -18.65625 3.550781 -18.328125 2.90625 -17.671875 C 2.257812 -17.015625 1.789062 -15.898438 1.5 -14.328125 C 1.5 -14.285156 1.441406 -14.265625 1.328125 -14.265625 C 1.222656 -14.265625 1.171875 -14.285156 1.171875 -14.328125 C 1.253906 -15.054688 1.34375 -16.015625 1.4375 -17.203125 C 1.539062 -18.398438 1.59375 -19.296875 1.59375 -19.890625 C 1.59375 -19.984375 1.648438 -20.03125 1.765625 -20.03125 C 1.878906 -20.03125 1.9375 -19.984375 1.9375 -19.890625 C 1.9375 -19.429688 2.488281 -19.203125 3.59375 -19.203125 C 5.332031 -19.140625 7.394531 -19.109375 9.78125 -19.109375 C 10.988281 -19.109375 12.265625 -19.128906 13.609375 -19.171875 L 15.703125 -19.203125 C 16.441406 -19.203125 16.988281 -19.253906 17.34375 -19.359375 C 17.707031 -19.460938 17.941406 -19.671875 18.046875 -19.984375 C 18.066406 -20.054688 18.125 -20.09375 18.21875 -20.09375 C 18.320312 -20.09375 18.375 -20.054688 18.375 -19.984375 C 18.3125 -19.390625 18.25 -18.484375 18.1875 -17.265625 C 18.132812 -16.054688 18.109375 -15.078125 18.109375 -14.328125 C 18.109375 -14.285156 18.046875 -14.265625 17.921875 -14.265625 C 17.796875 -14.265625 17.734375 -14.285156 17.734375 -14.328125 C 17.671875 -15.921875 17.34375 -17.039062 16.75 -17.6875 C 16.15625 -18.332031 15.171875 -18.65625 13.796875 -18.65625 C 12.878906 -18.65625 12.222656 -18.613281 11.828125 -18.53125 C 11.441406 -18.445312 11.175781 -18.269531 11.03125 -18 C 10.882812 -17.738281 10.8125 -17.289062 10.8125 -16.65625 L 10.8125 -2.484375 C 10.8125 -1.847656 10.882812 -1.382812 11.03125 -1.09375 C 11.175781 -0.8125 11.453125 -0.617188 11.859375 -0.515625 C 12.273438 -0.421875 12.921875 -0.375 13.796875 -0.375 C 13.859375 -0.375 13.890625 -0.3125 13.890625 -0.1875 C 13.890625 -0.0625 13.859375 0 13.796875 0 C 13.117188 0 12.578125 -0.0078125 12.171875 -0.03125 L 9.78125 -0.0625 L 7.46875 -0.03125 C 7.0625 -0.0078125 6.5 0 5.78125 0 C 5.738281 0 5.71875 -0.0625 5.71875 -0.1875 C 5.71875 -0.3125 5.738281 -0.375 5.78125 -0.375 C 6.65625 -0.375 7.296875 -0.421875 7.703125 -0.515625 C 8.117188 -0.617188 8.40625 -0.816406 8.5625 -1.109375 C 8.71875 -1.410156 8.796875 -1.867188 8.796875 -2.484375 L 8.796875 -16.71875 C 8.796875 -17.351562 8.722656 -17.796875 8.578125 -18.046875 C 8.429688 -18.304688 8.160156 -18.472656 7.765625 -18.546875 C 7.378906 -18.617188 6.726562 -18.65625 5.8125 -18.65625 Z M 5.8125 -18.65625 "/></g></g><g style="fill:#cfaa5c;fill-opacity:1;"><g transform="translate(77.996145, 62.431857)"><path style="stroke:none" d="M 22.1875 -0.375 C 22.25 -0.375 22.28125 -0.3125 22.28125 -0.1875 C 22.28125 -0.0625 22.25 0 22.1875 0 C 21.550781 0 21.050781 -0.0078125 20.6875 -0.03125 L 18.5625 -0.0625 L 16.3125 -0.03125 C 15.945312 -0.0078125 15.457031 0 14.84375 0 C 14.78125 0 14.75 -0.0625 14.75 -0.1875 C 14.75 -0.3125 14.78125 -0.375 14.84375 -0.375 C 15.644531 -0.375 16.226562 -0.421875 16.59375 -0.515625 C 16.96875 -0.617188 17.21875 -0.816406 17.34375 -1.109375 C 17.476562 -1.410156 17.546875 -1.867188 17.546875 -2.484375 L 17.546875 -9.6875 L 5.75 -9.6875 L 5.75 -2.484375 C 5.75 -1.867188 5.8125 -1.410156 5.9375 -1.109375 C 6.070312 -0.816406 6.320312 -0.617188 6.6875 -0.515625 C 7.0625 -0.421875 7.648438 -0.375 8.453125 -0.375 C 8.492188 -0.375 8.515625 -0.3125 8.515625 -0.1875 C 8.515625 -0.0625 8.492188 0 8.453125 0 C 7.816406 0 7.316406 -0.0078125 6.953125 -0.03125 L 4.734375 -0.0625 L 2.609375 -0.03125 C 2.242188 -0.0078125 1.734375 0 1.078125 0 C 1.035156 0 1.015625 -0.0625 1.015625 -0.1875 C 1.015625 -0.3125 1.035156 -0.375 1.078125 -0.375 C 1.859375 -0.375 2.4375 -0.421875 2.8125 -0.515625 C 3.1875 -0.617188 3.441406 -0.816406 3.578125 -1.109375 C 3.710938 -1.410156 3.78125 -1.867188 3.78125 -2.484375 L 3.78125 -16.71875 C 3.78125 -17.332031 3.710938 -17.78125 3.578125 -18.0625 C 3.441406 -18.351562 3.191406 -18.554688 2.828125 -18.671875 C 2.460938 -18.785156 1.890625 -18.84375 1.109375 -18.84375 C 1.066406 -18.84375 1.046875 -18.898438 1.046875 -19.015625 C 1.046875 -19.140625 1.066406 -19.203125 1.109375 -19.203125 L 2.671875 -19.171875 C 3.535156 -19.128906 4.222656 -19.109375 4.734375 -19.109375 C 5.328125 -19.109375 6.078125 -19.128906 6.984375 -19.171875 L 8.453125 -19.203125 C 8.492188 -19.203125 8.515625 -19.140625 8.515625 -19.015625 C 8.515625 -18.898438 8.492188 -18.84375 8.453125 -18.84375 C 7.671875 -18.84375 7.085938 -18.78125 6.703125 -18.65625 C 6.328125 -18.53125 6.070312 -18.316406 5.9375 -18.015625 C 5.8125 -17.722656 5.75 -17.269531 5.75 -16.65625 L 5.75 -10.328125 L 17.546875 -10.328125 L 17.546875 -16.65625 C 17.546875 -17.269531 17.476562 -17.722656 17.34375 -18.015625 C 17.21875 -18.316406 16.96875 -18.53125 16.59375 -18.65625 C 16.226562 -18.78125 15.644531 -18.84375 14.84375 -18.84375 C 14.78125 -18.84375 14.75 -18.898438 14.75 -19.015625 C 14.75 -19.140625 14.78125 -19.203125 14.84375 -19.203125 L 16.3125 -19.171875 C 17.21875 -19.128906 17.96875 -19.109375 18.5625 -19.109375 C 19.113281 -19.109375 19.820312 -19.128906 20.6875 -19.171875 L 22.1875 -19.203125 C 22.25 -19.203125 22.28125 -19.140625 22.28125 -19.015625 C 22.28125 -18.898438 22.25 -18.84375 22.1875 -18.84375 C 21.40625 -18.84375 20.832031 -18.785156 20.46875 -18.671875 C 20.101562 -18.554688 19.851562 -18.351562 19.71875 -18.0625 C 19.582031 -17.78125 19.515625 -17.332031 19.515625 -16.71875 L 19.515625 -2.484375 C 19.515625 -1.867188 19.582031 -1.410156 19.71875 -1.109375 C 19.851562 -0.816406 20.101562 -0.617188 20.46875 -0.515625 C 20.832031 -0.421875 21.40625 -0.375 22.1875 -0.375 Z M 22.1875 -0.375 "/></g></g><g style="fill:#cfaa5c;fill-opacity:1;"><g transform="translate(101.320254, 62.431857)"><path style="stroke:none" d="M 21.484375 -0.375 C 21.566406 -0.375 21.609375 -0.3125 21.609375 -0.1875 C 21.609375 -0.0625 21.566406 0 21.484375 0 C 21.097656 0 20.492188 -0.0195312 19.671875 -0.0625 C 18.847656 -0.101562 18.253906 -0.125 17.890625 -0.125 C 17.441406 -0.125 16.867188 -0.101562 16.171875 -0.0625 C 15.515625 -0.0195312 15.007812 0 14.65625 0 C 14.570312 0 14.53125 -0.0625 14.53125 -0.1875 C 14.53125 -0.3125 14.570312 -0.375 14.65625 -0.375 C 15.414062 -0.375 15.96875 -0.441406 16.3125 -0.578125 C 16.664062 -0.722656 16.84375 -0.972656 16.84375 -1.328125 C 16.84375 -1.609375 16.707031 -2.046875 16.4375 -2.640625 L 12.90625 -10.171875 L 7.09375 -10.171875 L 4.453125 -3.90625 C 4.171875 -3.207031 4.03125 -2.632812 4.03125 -2.1875 C 4.03125 -0.976562 5.03125 -0.375 7.03125 -0.375 C 7.132812 -0.375 7.1875 -0.3125 7.1875 -0.1875 C 7.1875 -0.0625 7.132812 0 7.03125 0 C 6.664062 0 6.132812 -0.0195312 5.4375 -0.0625 C 4.65625 -0.101562 3.976562 -0.125 3.40625 -0.125 C 2.875 -0.125 2.257812 -0.101562 1.5625 -0.0625 C 0.945312 -0.0195312 0.4375 0 0.03125 0 C -0.0703125 0 -0.125 -0.0625 -0.125 -0.1875 C -0.125 -0.3125 -0.0703125 -0.375 0.03125 -0.375 C 0.601562 -0.375 1.085938 -0.476562 1.484375 -0.6875 C 1.890625 -0.90625 2.269531 -1.285156 2.625 -1.828125 C 2.988281 -2.367188 3.382812 -3.15625 3.8125 -4.1875 L 10.296875 -19.484375 C 10.335938 -19.546875 10.410156 -19.578125 10.515625 -19.578125 C 10.617188 -19.578125 10.679688 -19.546875 10.703125 -19.484375 L 17.953125 -4.203125 C 18.648438 -2.691406 19.242188 -1.675781 19.734375 -1.15625 C 20.222656 -0.632812 20.804688 -0.375 21.484375 -0.375 Z M 7.375 -10.8125 L 12.59375 -10.8125 L 9.828125 -16.65625 Z M 7.375 -10.8125 "/></g></g><g style="fill:#cfaa5c;fill-opacity:1;"><g transform="translate(122.892747, 62.431857)"><path style="stroke:none" d="M 18.875 -19.203125 C 18.914062 -19.203125 18.9375 -19.140625 18.9375 -19.015625 C 18.9375 -18.898438 18.914062 -18.84375 18.875 -18.84375 C 18.132812 -18.84375 17.382812 -18.570312 16.625 -18.03125 C 15.863281 -17.488281 15.1875 -16.742188 14.59375 -15.796875 L 10.484375 -9.46875 L 10.484375 -2.484375 C 10.484375 -1.847656 10.539062 -1.382812 10.65625 -1.09375 C 10.78125 -0.8125 11.019531 -0.617188 11.375 -0.515625 C 11.738281 -0.421875 12.3125 -0.375 13.09375 -0.375 C 13.15625 -0.375 13.1875 -0.3125 13.1875 -0.1875 C 13.1875 -0.0625 13.15625 0 13.09375 0 C 12.457031 0 11.96875 -0.0078125 11.625 -0.03125 L 9.46875 -0.0625 L 7.34375 -0.03125 C 6.976562 -0.0078125 6.476562 0 5.84375 0 C 5.78125 0 5.75 -0.0625 5.75 -0.1875 C 5.75 -0.3125 5.78125 -0.375 5.84375 -0.375 C 6.613281 -0.375 7.175781 -0.421875 7.53125 -0.515625 C 7.894531 -0.617188 8.144531 -0.816406 8.28125 -1.109375 C 8.414062 -1.410156 8.484375 -1.867188 8.484375 -2.484375 L 8.484375 -8.96875 L 3.375 -16.4375 C 2.800781 -17.34375 2.257812 -17.96875 1.75 -18.3125 C 1.238281 -18.664062 0.644531 -18.84375 -0.03125 -18.84375 C -0.09375 -18.84375 -0.125 -18.898438 -0.125 -19.015625 C -0.125 -19.140625 -0.09375 -19.203125 -0.03125 -19.203125 C 0.21875 -19.203125 0.585938 -19.179688 1.078125 -19.140625 L 2.15625 -19.109375 C 2.851562 -19.109375 3.734375 -19.128906 4.796875 -19.171875 L 6.453125 -19.203125 C 6.492188 -19.203125 6.515625 -19.140625 6.515625 -19.015625 C 6.515625 -18.898438 6.492188 -18.84375 6.453125 -18.84375 C 5.390625 -18.84375 4.859375 -18.625 4.859375 -18.1875 C 4.859375 -17.96875 4.957031 -17.710938 5.15625 -17.421875 L 10.109375 -10.171875 L 13.859375 -15.921875 C 14.304688 -16.640625 14.53125 -17.242188 14.53125 -17.734375 C 14.53125 -18.472656 13.976562 -18.84375 12.875 -18.84375 C 12.832031 -18.84375 12.8125 -18.898438 12.8125 -19.015625 C 12.8125 -19.140625 12.832031 -19.203125 12.875 -19.203125 L 14.328125 -19.171875 C 15.097656 -19.128906 15.8125 -19.109375 16.46875 -19.109375 C 16.820312 -19.109375 17.242188 -19.128906 17.734375 -19.171875 Z M 18.875 -19.203125 "/></g></g><g style="fill:#cfaa5c;fill-opacity:1;"><g transform="translate(141.607345, 62.431857)"><path style="stroke:none" d="M 21.484375 -0.375 C 21.566406 -0.375 21.609375 -0.3125 21.609375 -0.1875 C 21.609375 -0.0625 21.566406 0 21.484375 0 C 21.097656 0 20.492188 -0.0195312 19.671875 -0.0625 C 18.847656 -0.101562 18.253906 -0.125 17.890625 -0.125 C 17.441406 -0.125 16.867188 -0.101562 16.171875 -0.0625 C 15.515625 -0.0195312 15.007812 0 14.65625 0 C 14.570312 0 14.53125 -0.0625 14.53125 -0.1875 C 14.53125 -0.3125 14.570312 -0.375 14.65625 -0.375 C 15.414062 -0.375 15.96875 -0.441406 16.3125 -0.578125 C 16.664062 -0.722656 16.84375 -0.972656 16.84375 -1.328125 C 16.84375 -1.609375 16.707031 -2.046875 16.4375 -2.640625 L 12.90625 -10.171875 L 7.09375 -10.171875 L 4.453125 -3.90625 C 4.171875 -3.207031 4.03125 -2.632812 4.03125 -2.1875 C 4.03125 -0.976562 5.03125 -0.375 7.03125 -0.375 C 7.132812 -0.375 7.1875 -0.3125 7.1875 -0.1875 C 7.1875 -0.0625 7.132812 0 7.03125 0 C 6.664062 0 6.132812 -0.0195312 5.4375 -0.0625 C 4.65625 -0.101562 3.976562 -0.125 3.40625 -0.125 C 2.875 -0.125 2.257812 -0.101562 1.5625 -0.0625 C 0.945312 -0.0195312 0.4375 0 0.03125 0 C -0.0703125 0 -0.125 -0.0625 -0.125 -0.1875 C -0.125 -0.3125 -0.0703125 -0.375 0.03125 -0.375 C 0.601562 -0.375 1.085938 -0.476562 1.484375 -0.6875 C 1.890625 -0.90625 2.269531 -1.285156 2.625 -1.828125 C 2.988281 -2.367188 3.382812 -3.15625 3.8125 -4.1875 L 10.296875 -19.484375 C 10.335938 -19.546875 10.410156 -19.578125 10.515625 -19.578125 C 10.617188 -19.578125 10.679688 -19.546875 10.703125 -19.484375 L 17.953125 -4.203125 C 18.648438 -2.691406 19.242188 -1.675781 19.734375 -1.15625 C 20.222656 -0.632812 20.804688 -0.375 21.484375 -0.375 Z M 7.375 -10.8125 L 12.59375 -10.8125 L 9.828125 -16.65625 Z M 7.375 -10.8125 "/></g></g><g style="fill:#cfaa5c;fill-opacity:1;"><g transform="translate(163.179838, 62.431857)"><path style="stroke:none" d="M 21.640625 -19.203125 C 21.703125 -19.203125 21.734375 -19.140625 21.734375 -19.015625 C 21.734375 -18.898438 21.703125 -18.84375 21.640625 -18.84375 C 20.773438 -18.84375 20.144531 -18.601562 19.75 -18.125 C 19.363281 -17.65625 19.171875 -16.890625 19.171875 -15.828125 L 19.171875 0.375 C 19.171875 0.414062 19.117188 0.441406 19.015625 0.453125 C 18.921875 0.472656 18.851562 0.46875 18.8125 0.4375 L 4.671875 -16.6875 L 4.390625 -17 L 4.390625 -3.34375 C 4.390625 -2.28125 4.578125 -1.519531 4.953125 -1.0625 C 5.335938 -0.601562 5.953125 -0.375 6.796875 -0.375 C 6.859375 -0.375 6.890625 -0.3125 6.890625 -0.1875 C 6.890625 -0.0625 6.859375 0 6.796875 0 C 6.285156 0 5.894531 -0.0078125 5.625 -0.03125 L 4.09375 -0.0625 L 2.515625 -0.03125 C 2.234375 -0.0078125 1.816406 0 1.265625 0 C 1.222656 0 1.203125 -0.0625 1.203125 -0.1875 C 1.203125 -0.3125 1.222656 -0.375 1.265625 -0.375 C 2.140625 -0.375 2.757812 -0.601562 3.125 -1.0625 C 3.5 -1.519531 3.6875 -2.28125 3.6875 -3.34375 L 3.6875 -17.734375 C 2.882812 -18.472656 2.078125 -18.84375 1.265625 -18.84375 C 1.203125 -18.84375 1.171875 -18.898438 1.171875 -19.015625 C 1.171875 -19.140625 1.203125 -19.203125 1.265625 -19.203125 L 2.390625 -19.171875 C 2.640625 -19.148438 2.976562 -19.140625 3.40625 -19.140625 C 3.863281 -19.140625 4.234375 -19.148438 4.515625 -19.171875 C 4.804688 -19.191406 5.03125 -19.203125 5.1875 -19.203125 C 5.351562 -19.203125 5.472656 -19.164062 5.546875 -19.09375 C 5.617188 -19.03125 5.738281 -18.875 5.90625 -18.625 C 6.144531 -18.257812 6.390625 -17.921875 6.640625 -17.609375 L 18.46875 -3.078125 L 18.46875 -15.828125 C 18.46875 -16.890625 18.285156 -17.65625 17.921875 -18.125 C 17.566406 -18.601562 16.972656 -18.84375 16.140625 -18.84375 C 16.097656 -18.84375 16.078125 -18.898438 16.078125 -19.015625 C 16.078125 -19.140625 16.097656 -19.203125 16.140625 -19.203125 L 17.328125 -19.171875 C 17.941406 -19.128906 18.445312 -19.109375 18.84375 -19.109375 C 19.207031 -19.109375 19.71875 -19.128906 20.375 -19.171875 Z M 21.640625 -19.203125 "/></g></g><g style="fill:#cfaa5c;fill-opacity:1;"><g transform="translate(185.520581, 62.431857)"><path style="stroke:none" d="M 21.640625 -19.203125 C 21.703125 -19.203125 21.734375 -19.140625 21.734375 -19.015625 C 21.734375 -18.898438 21.703125 -18.84375 21.640625 -18.84375 C 20.773438 -18.84375 20.144531 -18.601562 19.75 -18.125 C 19.363281 -17.65625 19.171875 -16.890625 19.171875 -15.828125 L 19.171875 0.375 C 19.171875 0.414062 19.117188 0.441406 19.015625 0.453125 C 18.921875 0.472656 18.851562 0.46875 18.8125 0.4375 L 4.671875 -16.6875 L 4.390625 -17 L 4.390625 -3.34375 C 4.390625 -2.28125 4.578125 -1.519531 4.953125 -1.0625 C 5.335938 -0.601562 5.953125 -0.375 6.796875 -0.375 C 6.859375 -0.375 6.890625 -0.3125 6.890625 -0.1875 C 6.890625 -0.0625 6.859375 0 6.796875 0 C 6.285156 0 5.894531 -0.0078125 5.625 -0.03125 L 4.09375 -0.0625 L 2.515625 -0.03125 C 2.234375 -0.0078125 1.816406 0 1.265625 0 C 1.222656 0 1.203125 -0.0625 1.203125 -0.1875 C 1.203125 -0.3125 1.222656 -0.375 1.265625 -0.375 C 2.140625 -0.375 2.757812 -0.601562 3.125 -1.0625 C 3.5 -1.519531 3.6875 -2.28125 3.6875 -3.34375 L 3.6875 -17.734375 C 2.882812 -18.472656 2.078125 -18.84375 1.265625 -18.84375 C 1.203125 -18.84375 1.171875 -18.898438 1.171875 -19.015625 C 1.171875 -19.140625 1.203125 -19.203125 1.265625 -19.203125 L 2.390625 -19.171875 C 2.640625 -19.148438 2.976562 -19.140625 3.40625 -19.140625 C 3.863281 -19.140625 4.234375 -19.148438 4.515625 -19.171875 C 4.804688 -19.191406 5.03125 -19.203125 5.1875 -19.203125 C 5.351562 -19.203125 5.472656 -19.164062 5.546875 -19.09375 C 5.617188 -19.03125 5.738281 -18.875 5.90625 -18.625 C 6.144531 -18.257812 6.390625 -17.921875 6.640625 -17.609375 L 18.46875 -3.078125 L 18.46875 -15.828125 C 18.46875 -16.890625 18.285156 -17.65625 17.921875 -18.125 C 17.566406 -18.601562 16.972656 -18.84375 16.140625 -18.84375 C 16.097656 -18.84375 16.078125 -18.898438 16.078125 -19.015625 C 16.078125 -19.140625 16.097656 -19.203125 16.140625 -19.203125 L 17.328125 -19.171875 C 17.941406 -19.128906 18.445312 -19.109375 18.84375 -19.109375 C 19.207031 -19.109375 19.71875 -19.128906 20.375 -19.171875 Z M 21.640625 -19.203125 "/></g></g><g style="fill:#cfaa5c;fill-opacity:1;"><g transform="translate(207.861325, 62.431857)"><path style="stroke:none" d="M 14.59375 -4.578125 C 14.59375 -4.617188 14.632812 -4.640625 14.71875 -4.640625 C 14.78125 -4.640625 14.835938 -4.628906 14.890625 -4.609375 C 14.941406 -4.585938 14.96875 -4.554688 14.96875 -4.515625 C 14.78125 -3.222656 14.6875 -1.875 14.6875 -0.46875 C 14.6875 -0.300781 14.648438 -0.179688 14.578125 -0.109375 C 14.503906 -0.0351562 14.378906 0 14.203125 0 L 1.328125 0 C 1.285156 0 1.265625 -0.0625 1.265625 -0.1875 C 1.265625 -0.3125 1.285156 -0.375 1.328125 -0.375 C 2.097656 -0.375 2.660156 -0.421875 3.015625 -0.515625 C 3.378906 -0.617188 3.628906 -0.816406 3.765625 -1.109375 C 3.898438 -1.410156 3.96875 -1.867188 3.96875 -2.484375 L 3.96875 -16.71875 C 3.96875 -17.332031 3.898438 -17.78125 3.765625 -18.0625 C 3.628906 -18.351562 3.378906 -18.554688 3.015625 -18.671875 C 2.660156 -18.785156 2.097656 -18.84375 1.328125 -18.84375 C 1.285156 -18.84375 1.265625 -18.898438 1.265625 -19.015625 C 1.265625 -19.140625 1.285156 -19.203125 1.328125 -19.203125 L 13.671875 -19.203125 C 13.859375 -19.203125 13.953125 -19.113281 13.953125 -18.9375 L 14.015625 -15.15625 C 14.015625 -15.09375 13.960938 -15.054688 13.859375 -15.046875 C 13.753906 -15.035156 13.691406 -15.0625 13.671875 -15.125 C 13.609375 -16.207031 13.28125 -17.050781 12.6875 -17.65625 C 12.09375 -18.257812 11.304688 -18.5625 10.328125 -18.5625 L 8.453125 -18.5625 C 7.734375 -18.5625 7.203125 -18.503906 6.859375 -18.390625 C 6.523438 -18.273438 6.289062 -18.078125 6.15625 -17.796875 C 6.03125 -17.523438 5.96875 -17.113281 5.96875 -16.5625 L 5.96875 -10.328125 L 9.71875 -10.328125 C 10.695312 -10.328125 11.394531 -10.488281 11.8125 -10.8125 C 12.238281 -11.144531 12.453125 -11.703125 12.453125 -12.484375 C 12.453125 -12.523438 12.507812 -12.546875 12.625 -12.546875 C 12.75 -12.546875 12.8125 -12.523438 12.8125 -12.484375 L 12.78125 -9.984375 C 12.78125 -9.390625 12.789062 -8.941406 12.8125 -8.640625 L 12.84375 -7.15625 C 12.84375 -7.113281 12.78125 -7.09375 12.65625 -7.09375 C 12.539062 -7.09375 12.484375 -7.113281 12.484375 -7.15625 C 12.484375 -8.0625 12.257812 -8.707031 11.8125 -9.09375 C 11.375 -9.488281 10.644531 -9.6875 9.625 -9.6875 L 5.96875 -9.6875 L 5.96875 -2.609375 C 5.96875 -2.035156 6.023438 -1.613281 6.140625 -1.34375 C 6.265625 -1.082031 6.488281 -0.898438 6.8125 -0.796875 C 7.144531 -0.691406 7.660156 -0.640625 8.359375 -0.640625 L 10.8125 -0.640625 C 11.800781 -0.640625 12.625 -0.988281 13.28125 -1.6875 C 13.9375 -2.382812 14.375 -3.347656 14.59375 -4.578125 Z M 14.59375 -4.578125 "/></g></g><g style="fill:#cfaa5c;fill-opacity:1;"><g transform="translate(17.186324, 58.808683)"><path style="stroke:none" d="M 11.625 -5.625 C 11.625 -4.457031 11.851562 -3.316406 12.3125 -2.203125 C 12.78125 -1.097656 13.628906 -0.363281 14.859375 0 L 2.671875 0 C 4.023438 -0.363281 4.929688 -1.097656 5.390625 -2.203125 C 5.859375 -3.316406 6.09375 -4.488281 6.09375 -5.71875 L 6.09375 -47.078125 C 4.425781 -47.140625 2.734375 -47.289062 1.015625 -47.53125 C -0.703125 -47.78125 -2.390625 -48.164062 -4.046875 -48.6875 C -5.710938 -49.21875 -7.316406 -49.894531 -8.859375 -50.71875 C -10.398438 -51.550781 -11.753906 -52.550781 -12.921875 -53.71875 L -12.640625 -54.5625 C -10.117188 -52.21875 -7.410156 -50.582031 -4.515625 -49.65625 C -1.628906 -48.738281 1.503906 -48.28125 4.890625 -48.28125 C 8.023438 -48.28125 11.054688 -48.632812 13.984375 -49.34375 C 16.910156 -50.050781 19.847656 -50.863281 22.796875 -51.78125 L 27.78125 -53.359375 C 30.738281 -54.335938 33.691406 -55.179688 36.640625 -55.890625 C 39.597656 -56.597656 42.644531 -56.953125 45.78125 -56.953125 C 49.664062 -56.953125 53.222656 -56.320312 56.453125 -55.0625 C 59.679688 -53.800781 62.554688 -51.632812 65.078125 -48.5625 L 64.25 -48.1875 C 63.320312 -49.539062 62.289062 -50.628906 61.15625 -51.453125 C 60.019531 -52.285156 58.773438 -52.929688 57.421875 -53.390625 C 56.066406 -53.859375 54.664062 -54.1875 53.21875 -54.375 C 51.769531 -54.5625 50.273438 -54.65625 48.734375 -54.65625 C 45.535156 -54.65625 42.394531 -54.300781 39.3125 -53.59375 C 36.238281 -52.882812 33.179688 -52.097656 30.140625 -51.234375 C 27.097656 -50.367188 24.035156 -49.535156 20.953125 -48.734375 C 17.878906 -47.941406 14.769531 -47.453125 11.625 -47.265625 Z M 11.625 -5.625 "/></g></g><g style="fill:#cfaa5c;fill-opacity:1;"><g transform="translate(7.209999, 58.829103)"><path style="stroke:none" d="M 8.125 -3.9375 C 8.125 -3.113281 8.285156 -2.316406 8.609375 -1.546875 C 8.929688 -0.773438 9.523438 -0.257812 10.390625 0 L 1.875 0 C 2.820312 -0.257812 3.453125 -0.773438 3.765625 -1.546875 C 4.085938 -2.316406 4.25 -3.132812 4.25 -4 L 4.25 -32.890625 C 3.09375 -32.929688 1.910156 -33.035156 0.703125 -33.203125 C -0.492188 -33.378906 -1.671875 -33.648438 -2.828125 -34.015625 C -3.992188 -34.390625 -5.113281 -34.863281 -6.1875 -35.4375 C -7.257812 -36.019531 -8.207031 -36.71875 -9.03125 -37.53125 L -8.84375 -38.125 C -7.070312 -36.488281 -5.175781 -35.347656 -3.15625 -34.703125 C -1.132812 -34.054688 1.054688 -33.734375 3.421875 -33.734375 C 5.609375 -33.734375 7.722656 -33.976562 9.765625 -34.46875 C 11.804688 -34.96875 13.863281 -35.539062 15.9375 -36.1875 L 19.421875 -37.28125 C 21.484375 -37.96875 23.546875 -38.554688 25.609375 -39.046875 C 27.671875 -39.546875 29.796875 -39.796875 31.984375 -39.796875 C 34.703125 -39.796875 37.1875 -39.351562 39.4375 -38.46875 C 41.695312 -37.59375 43.707031 -36.078125 45.46875 -33.921875 L 44.890625 -33.671875 C 44.242188 -34.617188 43.519531 -35.378906 42.71875 -35.953125 C 41.925781 -36.535156 41.054688 -36.988281 40.109375 -37.3125 C 39.171875 -37.632812 38.195312 -37.859375 37.1875 -37.984375 C 36.175781 -38.117188 35.132812 -38.1875 34.0625 -38.1875 C 31.820312 -38.1875 29.625 -37.9375 27.46875 -37.4375 C 25.320312 -36.945312 23.179688 -36.398438 21.046875 -35.796875 C 18.921875 -35.191406 16.785156 -34.609375 14.640625 -34.046875 C 12.492188 -33.492188 10.320312 -33.15625 8.125 -33.03125 Z M 8.125 -3.9375 "/></g></g><g clip-rule="nonzero" clip-path="url(#1e7395f87c)"><g style="fill:#cfaa5c;fill-opacity:1;"><g transform="translate(64.235723, 74.523267)"><path style="stroke:none" d="M 0.78125 0 L 0.78125 -5.40625 L 3.890625 -5.40625 L 3.890625 -4.78125 L 1.46875 -4.78125 L 1.46875 -2.90625 L 3.6875 -2.90625 L 3.6875 -2.28125 L 1.46875 -2.28125 L 1.46875 0 Z M 0.78125 0 "/></g></g></g><g clip-rule="nonzero" clip-path="url(#862a8ffb71)"><g style="fill:#cfaa5c;fill-opacity:1;"><g transform="translate(71.146824, 74.523267)"><path style="stroke:none" d="M 3.25 0.09375 C 2.695312 0.09375 2.207031 -0.0234375 1.78125 -0.265625 C 1.363281 -0.503906 1.035156 -0.832031 0.796875 -1.25 C 0.566406 -1.675781 0.453125 -2.160156 0.453125 -2.703125 C 0.453125 -3.253906 0.566406 -3.738281 0.796875 -4.15625 C 1.035156 -4.582031 1.363281 -4.914062 1.78125 -5.15625 C 2.207031 -5.394531 2.695312 -5.515625 3.25 -5.515625 C 3.800781 -5.515625 4.285156 -5.394531 4.703125 -5.15625 C 5.128906 -4.914062 5.460938 -4.582031 5.703125 -4.15625 C 5.941406 -3.738281 6.0625 -3.253906 6.0625 -2.703125 C 6.0625 -2.160156 5.941406 -1.675781 5.703125 -1.25 C 5.460938 -0.832031 5.128906 -0.503906 4.703125 -0.265625 C 4.285156 -0.0234375 3.800781 0.09375 3.25 0.09375 Z M 1.140625 -2.703125 C 1.140625 -2.285156 1.226562 -1.914062 1.40625 -1.59375 C 1.582031 -1.28125 1.828125 -1.03125 2.140625 -0.84375 C 2.460938 -0.664062 2.832031 -0.578125 3.25 -0.578125 C 3.664062 -0.578125 4.03125 -0.664062 4.34375 -0.84375 C 4.65625 -1.03125 4.898438 -1.28125 5.078125 -1.59375 C 5.265625 -1.914062 5.359375 -2.285156 5.359375 -2.703125 C 5.359375 -3.128906 5.265625 -3.5 5.078125 -3.8125 C 4.898438 -4.132812 4.65625 -4.382812 4.34375 -4.5625 C 4.03125 -4.738281 3.664062 -4.828125 3.25 -4.828125 C 2.832031 -4.828125 2.460938 -4.738281 2.140625 -4.5625 C 1.828125 -4.382812 1.582031 -4.132812 1.40625 -3.8125 C 1.226562 -3.5 1.140625 -3.128906 1.140625 -2.703125 Z M 1.140625 -2.703125 "/></g></g></g><g clip-rule="nonzero" clip-path="url(#e3e6c7a918)"><g style="fill:#cfaa5c;fill-opacity:1;"><g transform="translate(80.23737, 74.523267)"><path style="stroke:none" d="M 0.78125 0 L 0.78125 -5.40625 L 1.4375 -5.40625 L 4.421875 -1.171875 L 4.421875 -5.40625 L 5.09375 -5.40625 L 5.09375 0 L 4.453125 0 L 1.46875 -4.234375 L 1.46875 0 Z M 0.78125 0 "/></g></g></g><g clip-rule="nonzero" clip-path="url(#c54897c205)"><g style="fill:#cfaa5c;fill-opacity:1;"><g transform="translate(88.709638, 74.523267)"><path style="stroke:none" d="M 3.25 0.09375 C 2.695312 0.09375 2.207031 -0.0234375 1.78125 -0.265625 C 1.363281 -0.503906 1.035156 -0.832031 0.796875 -1.25 C 0.566406 -1.675781 0.453125 -2.160156 0.453125 -2.703125 C 0.453125 -3.253906 0.566406 -3.738281 0.796875 -4.15625 C 1.035156 -4.582031 1.363281 -4.914062 1.78125 -5.15625 C 2.207031 -5.394531 2.695312 -5.515625 3.25 -5.515625 C 3.800781 -5.515625 4.285156 -5.394531 4.703125 -5.15625 C 5.128906 -4.914062 5.460938 -4.582031 5.703125 -4.15625 C 5.941406 -3.738281 6.0625 -3.253906 6.0625 -2.703125 C 6.0625 -2.160156 5.941406 -1.675781 5.703125 -1.25 C 5.460938 -0.832031 5.128906 -0.503906 4.703125 -0.265625 C 4.285156 -0.0234375 3.800781 0.09375 3.25 0.09375 Z M 1.140625 -2.703125 C 1.140625 -2.285156 1.226562 -1.914062 1.40625 -1.59375 C 1.582031 -1.28125 1.828125 -1.03125 2.140625 -0.84375 C 2.460938 -0.664062 2.832031 -0.578125 3.25 -0.578125 C 3.664062 -0.578125 4.03125 -0.664062 4.34375 -0.84375 C 4.65625 -1.03125 4.898438 -1.28125 5.078125 -1.59375 C 5.265625 -1.914062 5.359375 -2.285156 5.359375 -2.703125 C 5.359375 -3.128906 5.265625 -3.5 5.078125 -3.8125 C 4.898438 -4.132812 4.65625 -4.382812 4.34375 -4.5625 C 4.03125 -4.738281 3.664062 -4.828125 3.25 -4.828125 C 2.832031 -4.828125 2.460938 -4.738281 2.140625 -4.5625 C 1.828125 -4.382812 1.582031 -4.132812 1.40625 -3.8125 C 1.226562 -3.5 1.140625 -3.128906 1.140625 -2.703125 Z M 1.140625 -2.703125 "/></g></g></g><g clip-rule="nonzero" clip-path="url(#f54953afd3)"><g style="fill:#cfaa5c;fill-opacity:1;"><g transform="translate(97.800185, 74.523267)"><path style="stroke:none" d="M 0.125 0 L 2.359375 -5.40625 L 3 -5.40625 L 5.21875 0 L 4.5 0 L 3.984375 -1.234375 L 1.359375 -1.234375 L 0.859375 0 Z M 1.609375 -1.859375 L 3.734375 -1.859375 L 2.671875 -4.46875 Z M 1.609375 -1.859375 "/></g></g></g><g clip-rule="nonzero" clip-path="url(#22e72f7e94)"><g style="fill:#cfaa5c;fill-opacity:1;"><g transform="translate(105.74691, 74.523267)"><path style="stroke:none" d="M 2.8125 0.09375 C 2.15625 0.09375 1.644531 -0.109375 1.28125 -0.515625 C 0.914062 -0.921875 0.734375 -1.484375 0.734375 -2.203125 L 0.734375 -5.40625 L 1.40625 -5.40625 L 1.40625 -2.25 C 1.40625 -1.695312 1.523438 -1.28125 1.765625 -1 C 2.003906 -0.71875 2.351562 -0.578125 2.8125 -0.578125 C 3.757812 -0.578125 4.234375 -1.132812 4.234375 -2.25 L 4.234375 -5.40625 L 4.90625 -5.40625 L 4.90625 -2.203125 C 4.90625 -1.484375 4.71875 -0.921875 4.34375 -0.515625 C 3.976562 -0.109375 3.46875 0.09375 2.8125 0.09375 Z M 2.8125 0.09375 "/></g></g></g><g clip-rule="nonzero" clip-path="url(#87fa733568)"><g style="fill:#cfaa5c;fill-opacity:1;"><g transform="translate(113.97959, 74.523267)"><path style="stroke:none" d="M 0.78125 0 L 0.78125 -5.40625 L 2.65625 -5.40625 C 3.21875 -5.40625 3.703125 -5.289062 4.109375 -5.0625 C 4.523438 -4.832031 4.847656 -4.515625 5.078125 -4.109375 C 5.316406 -3.710938 5.4375 -3.242188 5.4375 -2.703125 C 5.4375 -2.171875 5.316406 -1.703125 5.078125 -1.296875 C 4.847656 -0.890625 4.523438 -0.570312 4.109375 -0.34375 C 3.703125 -0.113281 3.21875 0 2.65625 0 Z M 1.46875 -0.65625 L 2.65625 -0.65625 C 3.070312 -0.65625 3.4375 -0.738281 3.75 -0.90625 C 4.0625 -1.082031 4.300781 -1.320312 4.46875 -1.625 C 4.644531 -1.9375 4.734375 -2.296875 4.734375 -2.703125 C 4.734375 -3.117188 4.644531 -3.476562 4.46875 -3.78125 C 4.289062 -4.09375 4.046875 -4.332031 3.734375 -4.5 C 3.421875 -4.675781 3.050781 -4.765625 2.625 -4.765625 L 1.46875 -4.765625 Z M 1.46875 -0.65625 "/></g></g></g><g clip-rule="nonzero" clip-path="url(#cc3afd8a33)"><g style="fill:#cfaa5c;fill-opacity:1;"><g transform="translate(122.459585, 74.523267)"><path style="stroke:none" d="M 0.78125 0 L 0.78125 -5.40625 L 1.46875 -5.40625 L 1.46875 0 Z M 0.78125 0 "/></g></g></g><g clip-rule="nonzero" clip-path="url(#d081712b39)"><g style="fill:#cfaa5c;fill-opacity:1;"><g transform="translate(127.314893, 74.523267)"><path style="stroke:none" d="M 3.25 0.09375 C 2.695312 0.09375 2.207031 -0.0234375 1.78125 -0.265625 C 1.363281 -0.503906 1.035156 -0.832031 0.796875 -1.25 C 0.566406 -1.675781 0.453125 -2.160156 0.453125 -2.703125 C 0.453125 -3.253906 0.566406 -3.738281 0.796875 -4.15625 C 1.035156 -4.582031 1.363281 -4.914062 1.78125 -5.15625 C 2.207031 -5.394531 2.695312 -5.515625 3.25 -5.515625 C 3.800781 -5.515625 4.285156 -5.394531 4.703125 -5.15625 C 5.128906 -4.914062 5.460938 -4.582031 5.703125 -4.15625 C 5.941406 -3.738281 6.0625 -3.253906 6.0625 -2.703125 C 6.0625 -2.160156 5.941406 -1.675781 5.703125 -1.25 C 5.460938 -0.832031 5.128906 -0.503906 4.703125 -0.265625 C 4.285156 -0.0234375 3.800781 0.09375 3.25 0.09375 Z M 1.140625 -2.703125 C 1.140625 -2.285156 1.226562 -1.914062 1.40625 -1.59375 C 1.582031 -1.28125 1.828125 -1.03125 2.140625 -0.84375 C 2.460938 -0.664062 2.832031 -0.578125 3.25 -0.578125 C 3.664062 -0.578125 4.03125 -0.664062 4.34375 -0.84375 C 4.65625 -1.03125 4.898438 -1.28125 5.078125 -1.59375 C 5.265625 -1.914062 5.359375 -2.285156 5.359375 -2.703125 C 5.359375 -3.128906 5.265625 -3.5 5.078125 -3.8125 C 4.898438 -4.132812 4.65625 -4.382812 4.34375 -4.5625 C 4.03125 -4.738281 3.664062 -4.828125 3.25 -4.828125 C 2.832031 -4.828125 2.460938 -4.738281 2.140625 -4.5625 C 1.828125 -4.382812 1.582031 -4.132812 1.40625 -3.8125 C 1.226562 -3.5 1.140625 -3.128906 1.140625 -2.703125 Z M 2.921875 -5.953125 L 3.421875 -7.015625 L 4.109375 -7.015625 L 3.515625 -5.953125 Z M 2.921875 -5.953125 "/></g></g></g><g clip-rule="nonzero" clip-path="url(#6b27115ad2)"><g style="fill:#cfaa5c;fill-opacity:1;"><g transform="translate(136.405439, 74.523267)"><path style="stroke:none" d="M 0.78125 0 L 0.78125 -5.40625 L 1.46875 -5.40625 L 1.46875 -0.65625 L 4.09375 -0.65625 L 4.09375 0 Z M 0.78125 0 "/></g></g></g><g clip-rule="nonzero" clip-path="url(#26031cc023)"><g style="fill:#cfaa5c;fill-opacity:1;"><g transform="translate(143.339723, 74.523267)"><path style="stroke:none" d="M 3.25 0.09375 C 2.695312 0.09375 2.207031 -0.0234375 1.78125 -0.265625 C 1.363281 -0.503906 1.035156 -0.832031 0.796875 -1.25 C 0.566406 -1.675781 0.453125 -2.160156 0.453125 -2.703125 C 0.453125 -3.253906 0.566406 -3.738281 0.796875 -4.15625 C 1.035156 -4.582031 1.363281 -4.914062 1.78125 -5.15625 C 2.207031 -5.394531 2.695312 -5.515625 3.25 -5.515625 C 3.800781 -5.515625 4.285156 -5.394531 4.703125 -5.15625 C 5.128906 -4.914062 5.460938 -4.582031 5.703125 -4.15625 C 5.941406 -3.738281 6.0625 -3.253906 6.0625 -2.703125 C 6.0625 -2.160156 5.941406 -1.675781 5.703125 -1.25 C 5.460938 -0.832031 5.128906 -0.503906 4.703125 -0.265625 C 4.285156 -0.0234375 3.800781 0.09375 3.25 0.09375 Z M 1.140625 -2.703125 C 1.140625 -2.285156 1.226562 -1.914062 1.40625 -1.59375 C 1.582031 -1.28125 1.828125 -1.03125 2.140625 -0.84375 C 2.460938 -0.664062 2.832031 -0.578125 3.25 -0.578125 C 3.664062 -0.578125 4.03125 -0.664062 4.34375 -0.84375 C 4.65625 -1.03125 4.898438 -1.28125 5.078125 -1.59375 C 5.265625 -1.914062 5.359375 -2.285156 5.359375 -2.703125 C 5.359375 -3.128906 5.265625 -3.5 5.078125 -3.8125 C 4.898438 -4.132812 4.65625 -4.382812 4.34375 -4.5625 C 4.03125 -4.738281 3.664062 -4.828125 3.25 -4.828125 C 2.832031 -4.828125 2.460938 -4.738281 2.140625 -4.5625 C 1.828125 -4.382812 1.582031 -4.132812 1.40625 -3.8125 C 1.226562 -3.5 1.140625 -3.128906 1.140625 -2.703125 Z M 1.140625 -2.703125 "/></g></g></g><g clip-rule="nonzero" clip-path="url(#b09c5166db)"><g style="fill:#cfaa5c;fill-opacity:1;"><g transform="translate(152.430269, 74.523267)"><path style="stroke:none" d="M 3.203125 0.09375 C 2.804688 0.09375 2.4375 0.0234375 2.09375 -0.109375 C 1.757812 -0.242188 1.46875 -0.4375 1.21875 -0.6875 C 0.976562 -0.9375 0.789062 -1.234375 0.65625 -1.578125 C 0.519531 -1.921875 0.453125 -2.296875 0.453125 -2.703125 C 0.453125 -3.109375 0.515625 -3.484375 0.640625 -3.828125 C 0.773438 -4.171875 0.96875 -4.46875 1.21875 -4.71875 C 1.46875 -4.96875 1.757812 -5.160156 2.09375 -5.296875 C 2.425781 -5.441406 2.789062 -5.515625 3.1875 -5.515625 C 3.601562 -5.515625 3.984375 -5.4375 4.328125 -5.28125 C 4.679688 -5.132812 4.984375 -4.925781 5.234375 -4.65625 C 5.492188 -4.394531 5.679688 -4.085938 5.796875 -3.734375 L 5.046875 -3.734375 C 4.878906 -4.078125 4.632812 -4.34375 4.3125 -4.53125 C 4 -4.726562 3.628906 -4.828125 3.203125 -4.828125 C 2.804688 -4.828125 2.453125 -4.738281 2.140625 -4.5625 C 1.828125 -4.382812 1.582031 -4.132812 1.40625 -3.8125 C 1.226562 -3.488281 1.140625 -3.117188 1.140625 -2.703125 C 1.140625 -2.285156 1.226562 -1.914062 1.40625 -1.59375 C 1.582031 -1.28125 1.828125 -1.03125 2.140625 -0.84375 C 2.453125 -0.664062 2.8125 -0.578125 3.21875 -0.578125 C 3.582031 -0.578125 3.90625 -0.648438 4.1875 -0.796875 C 4.476562 -0.941406 4.710938 -1.140625 4.890625 -1.390625 C 5.066406 -1.648438 5.175781 -1.953125 5.21875 -2.296875 L 3.015625 -2.296875 L 3.015625 -2.9375 L 5.953125 -2.9375 C 5.960938 -2.34375 5.851562 -1.816406 5.625 -1.359375 C 5.394531 -0.910156 5.070312 -0.554688 4.65625 -0.296875 C 4.238281 -0.0351562 3.753906 0.09375 3.203125 0.09375 Z M 3.203125 0.09375 "/></g></g></g><g clip-rule="nonzero" clip-path="url(#b23bb4ec37)"><g style="fill:#cfaa5c;fill-opacity:1;"><g transform="translate(161.404892, 74.523267)"><path style="stroke:none" d="M 0.125 0 L 2.359375 -5.40625 L 3 -5.40625 L 5.21875 0 L 4.5 0 L 3.984375 -1.234375 L 1.359375 -1.234375 L 0.859375 0 Z M 1.609375 -1.859375 L 3.734375 -1.859375 L 2.671875 -4.46875 Z M 1.609375 -1.859375 "/></g></g></g><g clip-rule="nonzero" clip-path="url(#5ba40ce4d1)"><path style=" stroke:none;fill-rule:nonzero;fill:#cfaa5c;fill-opacity:1;" d="M 31.671875 41.125 L 29.378906 41.128906 L 29.378906 40.414062 L 31.683594 40.414062 L 30.6875 34.164062 L 29.378906 34.164062 L 29.378906 33.449219 L 31.363281 33.449219 L 36.011719 32.449219 L 32.382812 31.5 L 29.378906 31.5 L 29.378906 30.785156 L 32.472656 30.785156 L 37.726562 32.160156 L 43.097656 36.929688 L 29.378906 53.710938 Z M 31.441406 34.164062 L 31.410156 34.164062 L 32.398438 40.363281 L 36.5 39.742188 L 33.960938 33.621094 Z M 37.449219 32.871094 L 34.671875 33.46875 L 37.179688 39.523438 L 41.988281 36.898438 Z M 41.171875 38.15625 L 37.265625 40.289062 L 32.457031 48.820312 Z M 36.332031 40.488281 L 32.40625 41.085938 L 30.589844 50.675781 Z M 36.332031 40.488281 "/></g><g clip-rule="nonzero" clip-path="url(#debd893c26)"><path style=" stroke:none;fill-rule:nonzero;fill:#cfaa5c;fill-opacity:1;" d="M 28.070312 27.671875 L 27.355469 27.671875 L 27.355469 56.824219 L 28.070312 56.824219 Z M 28.070312 27.671875 "/></g></g></svg>